TITLE "Utopia"
PERFORMER "Björk"
REM GENRE "Electronica"
REM DATE "2017"
REM DISCNUMBER 1
REM TOTALDISCS 1
REM DISCID A310D30E
REM REPLAYGAIN_ALBUM_GAIN -9.12 dB
REM REPLAYGAIN_ALBUM_PEAK 1.000000
FILE "01 - Arisen My Senses.flac" WAVE
  TRACK 01 AUDIO
    TITLE "Arisen My Senses"
    PERFORMER "Björk"
    ISRC GBBTF1700355
    FLAGS DCP
    REM REPLAYGAIN_TRACK_GAIN -8.55 dB
    REM REPLAYGAIN_TRACK_PEAK 0.999969
    INDEX 01 00:00:00
FILE "02 - Blissing Me.flac" WAVE
  TRACK 02 AUDIO
    TITLE "Blissing Me"
    PERFORMER "Björk"
    ISRC GBBTF1700356
    FLAGS DCP
    REM REPLAYGAIN_TRACK_GAIN -9.01 dB
    REM REPLAYGAIN_TRACK_PEAK 0.942932
    INDEX 01 00:00:00
FILE "03 - The Gate.flac" WAVE
  TRACK 03 AUDIO
    TITLE "The Gate"
    PERFORMER "Björk"
    ISRC GBBTF1700357
    FLAGS DCP
    REM REPLAYGAIN_TRACK_GAIN -7.59 dB
    REM REPLAYGAIN_TRACK_PEAK 0.929199
    INDEX 01 00:00:00
FILE "04 - Utopia.flac" WAVE
  TRACK 04 AUDIO
    TITLE "Utopia"
    PERFORMER "Björk"
    ISRC GBBTF1700360
    FLAGS DCP
    REM REPLAYGAIN_TRACK_GAIN -9.28 dB
    REM REPLAYGAIN_TRACK_PEAK 1.000000
    INDEX 01 00:00:00
FILE "05 - Body Memory.flac" WAVE
  TRACK 05 AUDIO
    TITLE "Body Memory"
    PERFORMER "Björk"
    ISRC GBBTF1700358
    FLAGS DCP
    REM REPLAYGAIN_TRACK_GAIN -9.78 dB
    REM REPLAYGAIN_TRACK_PEAK 0.984039
    INDEX 01 00:00:00
FILE "06 - Features Creatures.flac" WAVE
  TRACK 06 AUDIO
    TITLE "Features Creatures"
    PERFORMER "Björk"
    ISRC GBBTF1700367
    FLAGS DCP
    REM REPLAYGAIN_TRACK_GAIN -8.40 dB
    REM REPLAYGAIN_TRACK_PEAK 0.931915
    INDEX 01 00:00:00
FILE "07 - Courtship.flac" WAVE
  TRACK 07 AUDIO
    TITLE "Courtship"
    PERFORMER "Björk"
    ISRC GBBTF1700362
    FLAGS DCP
    REM REPLAYGAIN_TRACK_GAIN -9.40 dB
    REM REPLAYGAIN_TRACK_PEAK 1.000000
    INDEX 01 00:00:00
FILE "08 - Losss.flac" WAVE
  TRACK 08 AUDIO
    TITLE "Losss"
    PERFORMER "Björk"
    ISRC GBBTF1700359
    FLAGS DCP
    REM REPLAYGAIN_TRACK_GAIN -10.10 dB
    REM REPLAYGAIN_TRACK_PEAK 0.998566
    INDEX 01 00:00:00
FILE "09 - Sue Me.flac" WAVE
  TRACK 09 AUDIO
    TITLE "Sue Me"
    PERFORMER "Björk"
    ISRC GBBTF1700363
    FLAGS DCP
    REM REPLAYGAIN_TRACK_GAIN -9.17 dB
    REM REPLAYGAIN_TRACK_PEAK 1.000000
    INDEX 01 00:00:00
FILE "10 - Tabula Rasa.flac" WAVE
  TRACK 10 AUDIO
    TITLE "Tabula Rasa"
    PERFORMER "Björk"
    ISRC GBBTF1700364
    FLAGS DCP
    REM REPLAYGAIN_TRACK_GAIN -8.86 dB
    REM REPLAYGAIN_TRACK_PEAK 0.917572
    INDEX 01 00:00:00
FILE "11 - Claimstaker.flac" WAVE
  TRACK 11 AUDIO
    TITLE "Claimstaker"
    PERFORMER "Björk"
    ISRC GBBTF1700365
    FLAGS DCP
    REM REPLAYGAIN_TRACK_GAIN -8.29 dB
    REM REPLAYGAIN_TRACK_PEAK 0.919739
    INDEX 01 00:00:00
FILE "12 - Paradisia.flac" WAVE
  TRACK 12 AUDIO
    TITLE "Paradisia"
    PERFORMER "Björk"
    ISRC GBBTF1700366
    FLAGS DCP
    REM REPLAYGAIN_TRACK_GAIN -2.04 dB
    REM REPLAYGAIN_TRACK_PEAK 0.650574
    INDEX 01 00:00:00
FILE "13 - Saint.flac" WAVE
  TRACK 13 AUDIO
    TITLE "Saint"
    PERFORMER "Björk"
    ISRC GBBTF1700361
    FLAGS DCP
    REM REPLAYGAIN_TRACK_GAIN -8.52 dB
    REM REPLAYGAIN_TRACK_PEAK 0.964386
    INDEX 01 00:00:00
FILE "14 - Future Forever.flac" WAVE
  TRACK 14 AUDIO
    TITLE "Future Forever"
    PERFORMER "Björk"
    ISRC GBBTF1700368
    FLAGS DCP
    REM REPLAYGAIN_TRACK_GAIN -7.38 dB
    REM REPLAYGAIN_TRACK_PEAK 0.903168
    INDEX 01 00:00:00
